<svg viewBox="0 0 189 50" fill="none" xmlns="http://www.w3.org/2000/svg">
<style>
    path {
        fill: black;
    }
</style>
<path d="M62.3534 14.3688C62.1581 14.3688 61.9818 14.1938 61.9818 14.0001V3.4251C61.9818 3.23135 61.8055 3.0751 61.6102 3.0751H57.8442C57.649 3.0751 57.4727 2.9001 57.4727 2.70635V1.48135C57.4727 1.2876 57.649 1.13135 57.8442 1.13135H68.3803C68.5755 1.13135 68.7518 1.2876 68.7518 1.48135V2.70635C68.7518 2.9001 68.5755 3.0751 68.3803 3.0751H64.5953C64.4001 3.0751 64.2427 3.23135 64.2427 3.4251V14.0001C64.2427 14.1938 64.0663 14.3688 63.8711 14.3688H62.3597H62.3534Z" class="st-1"></path>
<path d="M76.719 14.3688C76.5238 14.3688 76.3663 14.1938 76.3663 14V8.2125C76.3663 7.1 75.6043 6.4375 74.4644 6.4375C73.3245 6.4375 72.424 7.175 72.424 8.19375V14C72.424 14.1938 72.2476 14.3688 72.0524 14.3688H70.6417C70.4465 14.3688 70.2891 14.1938 70.2891 14V1.49375C70.2891 1.3 70.4465 1.125 70.6417 1.125H72.0524C72.2476 1.125 72.424 1.3 72.424 1.49375V5.775C72.8144 5.19375 73.7024 4.5125 75.132 4.5125C77.2921 4.5125 78.5076 5.8375 78.5076 7.88125V14C78.5076 14.1938 78.3312 14.3688 78.136 14.3688H76.7253H76.719Z" class="st-1"></path>
<path d="M89.7364 11.2373C90.108 11.2373 90.1898 11.4498 90.0513 11.7623C89.3271 13.3998 87.5574 14.5311 85.4162 14.5311C82.4752 14.5311 80.3906 12.4873 80.3906 9.54356C80.3906 6.59981 82.5696 4.51855 85.454 4.51855C88.3383 4.51855 90.4606 6.59981 90.4606 9.54356C90.4606 9.87481 90.341 10.1061 90.0072 10.1061H82.6263C82.7649 11.6811 83.9236 12.6373 85.4351 12.6373C86.3734 12.6373 87.2425 12.2498 87.7337 11.5686C87.929 11.3123 88.1242 11.2373 88.3635 11.2373H89.7364ZM88.1683 8.6873C87.929 7.26855 86.8143 6.40605 85.4414 6.40605C84.0685 6.40605 82.8719 7.28105 82.6515 8.6873H88.1683Z" class="st-1"></path>
<path d="M70.3015 27.5438C70.6542 27.5438 70.8305 27.7813 70.5975 28.1876C69.4765 30.3688 67.1463 31.7501 64.4131 31.7501C60.5086 31.7501 57.4668 28.8688 57.4668 25.0126C57.4668 21.1563 60.5905 18.1938 64.4131 18.1938C67.0834 18.1938 69.4198 19.5751 70.5786 21.7376C70.7171 22.0313 70.6542 22.3626 70.2448 22.3626H68.7145C68.3996 22.3626 68.2421 22.2438 68.0658 22.0126C67.2408 20.9001 65.9687 20.2188 64.432 20.2188C61.8248 20.2188 59.778 22.2813 59.778 24.9688C59.778 27.6563 61.8185 29.7188 64.432 29.7188C65.9435 29.7188 67.2786 29.0001 68.1225 27.8688C68.3177 27.6376 68.4374 27.5376 68.79 27.5376H70.3015V27.5438Z" class="st-1"></path>
<path d="M77.0523 31.7498C74.168 31.7498 71.9512 29.5873 71.9512 26.7436C71.9512 23.8998 74.168 21.7373 77.0523 21.7373C79.9366 21.7373 82.1534 23.8998 82.1534 26.7436C82.1534 29.5873 79.9178 31.7498 77.0523 31.7498ZM79.9996 26.7436C79.9996 25.0311 78.6645 23.7061 77.0586 23.7061C75.4527 23.7061 74.1113 25.0311 74.1113 26.7436C74.1113 28.4561 75.4275 29.7811 77.0586 29.7811C78.6708 29.7811 79.9996 28.4561 79.9996 26.7436Z" class="st-1"></path>
<path d="M96.0527 31.5936C95.8574 31.5936 95.7 31.4186 95.7 31.2248V25.4373C95.7 24.3248 95.0513 23.6623 93.9178 23.6623C92.3055 23.6623 92.0158 24.7561 92.0158 25.8623V31.2186C92.0158 31.4123 91.8395 31.5873 91.6443 31.5873H90.2147C90.0195 31.5873 89.862 31.4123 89.862 31.2186V25.4311C89.862 24.3186 89.2323 23.6561 88.0987 23.6561C86.9021 23.6561 86.1779 24.3936 86.1779 25.4123V31.2186C86.1779 31.4123 86.0016 31.5873 85.8063 31.5873H84.3956C84.2004 31.5873 84.043 31.4123 84.043 31.2186V22.2998C84.043 22.1061 84.2004 21.9311 84.3956 21.9311H85.7496C85.9449 21.9311 86.1212 22.1061 86.1212 22.2998V23.0811C86.5117 22.4748 87.2422 21.7561 88.7914 21.7561C90.2021 21.7561 91.1468 22.3998 91.6191 23.3561C92.23 22.6123 92.9542 21.7373 94.5664 21.7373C96.7265 21.7373 97.8664 23.0623 97.8664 25.1061V31.2248C97.8664 31.4186 97.6901 31.5936 97.4948 31.5936H96.0842H96.0527Z" class="st-1"></path>
<path d="M112.307 31.5936C112.112 31.5936 111.955 31.4186 111.955 31.2248V25.4373C111.955 24.3248 111.306 23.6623 110.166 23.6623C108.554 23.6623 108.264 24.7561 108.264 25.8623V31.2186C108.264 31.4123 108.088 31.5873 107.893 31.5873H106.463C106.268 31.5873 106.111 31.4123 106.111 31.2186V25.4311C106.111 24.3186 105.481 23.6561 104.341 23.6561C103.144 23.6561 102.42 24.3936 102.42 25.4123V31.2186C102.42 31.4123 102.244 31.5873 102.049 31.5873H100.638C100.443 31.5873 100.285 31.4123 100.285 31.2186V22.2998C100.285 22.1061 100.443 21.9311 100.638 21.9311H101.992C102.187 21.9311 102.363 22.1061 102.363 22.2998V23.0811C102.754 22.4748 103.484 21.7561 105.034 21.7561C106.444 21.7561 107.389 22.3998 107.861 23.3561C108.472 22.6123 109.196 21.7373 110.809 21.7373C112.969 21.7373 114.102 23.0623 114.102 25.1061V31.2248C114.102 31.4186 113.926 31.5936 113.731 31.5936H112.32H112.307Z" class="st-1"></path>
<path d="M123.037 31.5938C122.842 31.5938 122.666 31.4188 122.666 31.225V30.4063C122.294 30.9938 121.387 31.75 119.901 31.75C117.741 31.75 116.525 30.425 116.525 28.3813V22.3063C116.525 22.1125 116.702 21.9375 116.897 21.9375H118.308C118.503 21.9375 118.66 22.1125 118.66 22.3063V28.0938C118.66 29.225 119.366 29.8875 120.562 29.8875C121.759 29.8875 122.603 29.125 122.603 28.1188V22.3125C122.603 22.1188 122.779 21.9438 122.974 21.9438H124.385C124.58 21.9438 124.738 22.1188 124.738 22.3125V31.2313C124.738 31.425 124.58 31.6 124.385 31.6H123.031L123.037 31.5938Z" class="st-1"></path>
<path d="M133.617 31.5937C133.422 31.5937 133.265 31.4187 133.265 31.2249V25.4374C133.265 24.3249 132.503 23.6624 131.363 23.6624C130.223 23.6624 129.322 24.3999 129.322 25.4187V31.2249C129.322 31.4187 129.146 31.5937 128.951 31.5937H127.54C127.345 31.5937 127.188 31.4187 127.188 31.2249V22.3062C127.188 22.1124 127.345 21.9374 127.54 21.9374H128.894C129.089 21.9374 129.266 22.1124 129.266 22.3062V23.0874C129.637 22.4999 130.538 21.7437 132.03 21.7437C134.191 21.7437 135.406 23.0687 135.406 25.1124V31.2312C135.406 31.4249 135.23 31.5999 135.034 31.5999H133.624L133.617 31.5937Z" class="st-1"></path>
<path d="M137.68 19.4627C137.68 18.7814 138.265 18.2002 138.952 18.2002C139.638 18.2002 140.224 18.7814 140.224 19.4627C140.224 20.1439 139.632 20.7502 138.952 20.7502C138.272 20.7502 137.68 20.1627 137.68 19.4627ZM138.228 31.5939C138.032 31.5939 137.875 31.4189 137.875 31.2252V22.3064C137.875 22.1127 138.032 21.9377 138.228 21.9377H139.638C139.833 21.9377 140.01 22.1127 140.01 22.3064V31.2252C140.01 31.4189 139.833 31.5939 139.638 31.5939H138.228Z" class="st-1"></path>
<path d="M151.416 28.0873C151.807 28.0873 151.907 28.2436 151.788 28.5561C151.101 30.4686 149.275 31.7498 147.039 31.7498C144.174 31.7498 141.957 29.5873 141.957 26.7436C141.957 23.8998 144.174 21.7373 147.039 21.7373C149.256 21.7373 151.045 23.0061 151.788 24.8748C151.907 25.1498 151.807 25.3436 151.511 25.3436H150.018C149.785 25.3436 149.647 25.2873 149.451 25.0311C148.922 24.2498 148.041 23.7248 147.039 23.7248C145.408 23.7248 144.136 25.0498 144.136 26.7436C144.136 28.4373 145.433 29.7623 147.039 29.7623C148.078 29.7623 148.985 29.2373 149.495 28.3998C149.615 28.2248 149.772 28.0873 150.005 28.0873H151.416Z" class="st-1"></path>
<path d="M161.549 31.5936C161.354 31.5936 161.196 31.4186 161.196 31.2248V30.2498C160.434 31.1686 159.332 31.7498 157.978 31.7498C155.27 31.7498 153.129 29.5873 153.129 26.7436C153.129 23.8998 155.289 21.7373 157.997 21.7373C159.351 21.7373 160.434 22.2998 161.196 23.2186V22.3061C161.196 22.1123 161.354 21.9373 161.549 21.9373H162.903C163.098 21.9373 163.274 22.1123 163.274 22.3061V31.2248C163.274 31.4186 163.098 31.5936 162.903 31.5936H161.549ZM161.196 26.7436C161.196 24.9936 159.88 23.6873 158.249 23.6873C156.618 23.6873 155.283 25.0311 155.283 26.7436C155.283 28.4561 156.618 29.7998 158.249 29.7998C159.88 29.7998 161.196 28.4936 161.196 26.7436Z" class="st-1"></path>
<path d="M169.106 31.5936C167.103 31.5936 166.222 30.7561 166.222 28.7873V23.7811H165.12C164.924 23.7811 164.748 23.6248 164.748 23.4311V22.2998C164.748 22.1061 164.924 21.9311 165.12 21.9311H166.222V19.8873C166.222 19.6936 166.379 19.5186 166.574 19.5186H167.985C168.18 19.5186 168.357 19.6936 168.357 19.8873V21.9311H170.026C170.221 21.9311 170.397 22.1061 170.397 22.2998V23.4311C170.397 23.6248 170.221 23.7811 170.026 23.7811H168.357V28.4373C168.357 29.3498 168.69 29.7248 169.629 29.7248H170.038C170.233 29.7248 170.41 29.8998 170.41 30.0936V31.2436C170.41 31.4373 170.233 31.5936 170.038 31.5936H169.1H169.106Z" class="st-1"></path>
<path d="M176.48 31.7498C173.596 31.7498 171.379 29.5873 171.379 26.7436C171.379 23.8998 173.596 21.7373 176.48 21.7373C179.364 21.7373 181.581 23.8998 181.581 26.7436C181.581 29.5873 179.345 31.7498 176.48 31.7498ZM179.421 26.7436C179.421 25.0311 178.086 23.7061 176.48 23.7061C174.874 23.7061 173.539 25.0311 173.539 26.7436C173.539 28.4561 174.855 29.7811 176.48 29.7811C178.086 29.7811 179.421 28.4561 179.421 26.7436Z" class="st-1"></path>
<path d="M183.804 31.5937C183.609 31.5937 183.451 31.4187 183.451 31.2249V22.3062C183.451 22.1124 183.609 21.9374 183.804 21.9374H185.158C185.353 21.9374 185.529 22.1124 185.529 22.3062V22.9124C185.939 22.2687 186.625 21.7437 187.69 21.7437C188.162 21.7437 188.672 21.8624 188.848 22.0749C188.987 22.1562 189.062 22.3124 188.949 22.5062L188.244 23.7749C188.143 23.9499 187.967 23.9874 187.809 23.9312C187.614 23.8749 187.4 23.8124 187.179 23.8124C186.103 23.8124 185.592 24.7062 185.592 25.7812V31.2374C185.592 31.4312 185.416 31.6062 185.221 31.6062H183.81L183.804 31.5937Z" class="st-1"></path>
<path d="M68.5378 48.8189C68.3993 48.8189 68.2859 48.7627 68.1663 48.5064L67.1649 46.2252C67.0894 46.0689 67.0075 46.0127 66.8311 46.0127H60.905C60.7287 46.0127 60.6279 46.1127 60.5712 46.2689L59.6077 48.5064C59.488 48.7814 59.1983 48.8189 58.9401 48.8189H57.6239C57.3909 48.8189 57.2524 48.6064 57.372 48.3314L62.8258 35.8877C62.9455 35.5939 63.0777 35.5752 63.3548 35.5752H64.7277C64.9418 35.5752 65.0426 35.7314 65.1182 35.9064L70.4586 48.3502C70.5531 48.5627 70.4397 48.8189 70.1815 48.8189H68.5315H68.5378ZM63.9468 38.5377C63.9279 38.4814 63.8712 38.4814 63.846 38.5377L61.4907 44.0502C61.434 44.1877 61.5096 44.2814 61.6481 44.2814H66.1447C66.2644 44.2814 66.321 44.1627 66.2644 44.0502L63.9468 38.5377Z" class="st-1"></path>
<path d="M80.2964 48.8187C80.139 48.8187 80.0193 48.725 79.9626 48.525L77.8844 42.2937C77.8655 42.2187 77.8088 42.2187 77.7836 42.2937L75.6046 48.525C75.5669 48.6625 75.485 48.8187 75.252 48.8187H73.7405C73.5831 48.8187 73.4634 48.725 73.4067 48.525L70.5035 39.6437C70.4279 39.3687 70.5413 39.1562 70.7995 39.1562H72.3109C72.5251 39.1562 72.6636 39.3125 72.7203 39.5062L74.6852 45.8563C74.723 45.95 74.7796 45.9938 74.8237 45.8563L77.0027 39.4875C77.0783 39.25 77.1791 39.1562 77.3932 39.1562H78.4323C78.6464 39.1562 78.7661 39.275 78.8228 39.4875L80.8821 45.8563C80.901 45.9313 80.9829 45.9313 81.0018 45.8563L83.0989 39.4875C83.1556 39.2937 83.2752 39.1562 83.4705 39.1562H84.9C85.1771 39.1562 85.2905 39.4062 85.2149 39.625L82.192 48.5062C82.1353 48.7 81.9968 48.8187 81.8394 48.8187H80.2901H80.2964Z" class="st-1"></path>
<path d="M94.4278 48.8187C94.2326 48.8187 94.0752 48.6437 94.0752 48.4499V47.4749C93.3068 48.3874 92.211 48.9749 90.857 48.9749C88.149 48.9749 86.0078 46.8124 86.0078 43.9687C86.0078 41.1249 88.1679 38.9624 90.8759 38.9624C92.2299 38.9624 93.3068 39.5249 94.0752 40.4437V39.5312C94.0752 39.3374 94.2326 39.1624 94.4278 39.1624H95.7818C95.9771 39.1624 96.1534 39.3374 96.1534 39.5312V48.4499C96.1534 48.6437 95.9771 48.8187 95.7818 48.8187H94.4278ZM94.0752 43.9687C94.0752 42.2124 92.7589 40.9124 91.1341 40.9124C89.5093 40.9124 88.1679 42.2562 88.1679 43.9687C88.1679 45.6812 89.503 47.0249 91.1341 47.0249C92.7652 47.0249 94.0752 45.7187 94.0752 43.9687Z" class="st-1"></path>
<path d="M98.9171 48.8188C98.7219 48.8188 98.5645 48.6437 98.5645 48.45V39.5313C98.5645 39.3375 98.7219 39.1625 98.9171 39.1625H100.271C100.466 39.1625 100.643 39.3375 100.643 39.5313V40.1375C101.052 39.4938 101.738 38.9688 102.803 38.9688C103.275 38.9688 103.785 39.0875 103.962 39.3C104.1 39.375 104.176 39.5313 104.062 39.7313L103.357 41C103.256 41.175 103.08 41.2125 102.922 41.1562C102.727 41.1 102.513 41.0375 102.293 41.0375C101.216 41.0375 100.706 41.9312 100.706 43.0062V48.4625C100.706 48.6563 100.529 48.8312 100.334 48.8312H98.9234L98.9171 48.8188Z" class="st-1"></path>
<path d="M112.912 48.8186C112.716 48.8186 112.559 48.6436 112.559 48.4498V47.4561C111.797 48.3936 110.676 48.9748 109.322 48.9748C106.614 48.9748 104.473 46.8123 104.473 43.9686C104.473 41.1248 106.633 38.9623 109.341 38.9623C110.638 38.9623 111.715 39.5061 112.483 40.3873V35.9498C112.483 35.7561 112.641 35.5811 112.836 35.5811H114.247C114.442 35.5811 114.618 35.7561 114.618 35.9498V48.4561C114.618 48.6498 114.442 48.8248 114.247 48.8248H112.912V48.8186ZM112.54 43.9686C112.54 42.2123 111.224 40.9123 109.599 40.9123C107.974 40.9123 106.633 42.2561 106.633 43.9686C106.633 45.6811 107.968 47.0248 109.599 47.0248C111.23 47.0248 112.54 45.7186 112.54 43.9686Z" class="st-1"></path>
<path d="M123.592 42.0063C123.315 42.0063 123.202 41.9126 123.12 41.6938C122.849 41.0501 122.024 40.7188 120.783 40.7188C119.543 40.7188 118.705 41.0688 118.705 41.7876C118.705 43.8313 125.456 41.9438 125.456 45.8001C125.456 47.9001 123.472 48.9751 120.903 48.9751C118.667 48.9751 116.879 48.2751 116.469 46.2313C116.432 46.0188 116.488 45.8251 116.784 45.8251H118.157C118.409 45.8251 118.548 45.9251 118.648 46.1188C118.963 46.9563 119.807 47.2501 121.041 47.2501C122.433 47.2501 123.315 46.8001 123.315 46.0251C123.315 43.8813 116.545 45.9251 116.545 42.0313C116.545 40.0876 118.176 38.9751 120.922 38.9751C122.943 38.9751 124.751 39.6376 125.198 41.5688C125.236 41.7063 125.299 42.0188 124.845 42.0188H123.592V42.0063Z" class="st-1"></path>
<path d="M25.1908 50C11.2981 50 0 38.7875 0 25C0 11.2125 11.2981 0 25.1908 0C28.39 0 31.501 0.5875 34.4421 1.74375C34.6184 1.8125 34.7507 1.95625 34.8073 2.1375C34.8577 2.31875 34.8262 2.5125 34.7192 2.6625L31.2177 7.6C31.0665 7.81875 30.7894 7.9125 30.5312 7.83125C28.8056 7.3 27.0108 7.0375 25.1908 7.0375C15.2089 7.0375 7.0912 15.0938 7.0912 25C7.0912 34.9062 15.2089 42.9625 25.1908 42.9625C26.9982 42.9625 28.7804 42.7 30.4934 42.1812C30.7516 42.1062 31.0224 42.2 31.1799 42.4125L34.6814 47.3562C34.7884 47.5125 34.8199 47.7062 34.7696 47.8812C34.7129 48.0625 34.5806 48.2062 34.4043 48.275C31.4759 49.4187 28.3711 50 25.1908 50Z" class="st-1"></path>
<path d="M49.7648 1.1123H43.908C43.5679 1.1123 43.2908 1.3873 43.2908 1.7248V7.61231C42.6169 6.92481 41.899 6.26855 41.137 5.64981C41.0047 5.54355 40.8347 5.49355 40.6647 5.51855C40.4946 5.54355 40.3435 5.63105 40.2427 5.7748L36.8608 10.5436C36.6782 10.7998 36.7223 11.1561 36.9616 11.3623C40.9795 14.7748 43.2845 19.7373 43.2908 24.9811V25.0311C43.2845 30.2936 40.9669 35.2623 36.9301 38.6748C36.6908 38.8811 36.6404 39.2373 36.8231 39.4936L40.2049 44.2623C40.3057 44.3998 40.4568 44.4936 40.6269 44.5186C40.6521 44.5186 40.6835 44.5186 40.7087 44.5186C40.8473 44.5186 40.9858 44.4686 41.0992 44.3811C41.8738 43.7561 42.6043 43.0873 43.2845 42.3873V48.2436C43.2845 48.5811 43.5616 48.8561 43.9017 48.8561H49.7585C50.0986 48.8561 50.3757 48.5811 50.3757 48.2436V1.7248C50.3757 1.3873 50.0986 1.1123 49.7585 1.1123"></path>
</svg>