<?xml version="1.0" encoding="utf-8"?>
<!-- Generator: Adobe Illustrator 19.0.0, SVG Export Plug-In . SVG Version: 6.00 Build 0)  -->
<svg version="1.1" id="Layer_1" xmlns="http://www.w3.org/2000/svg" xmlns:xlink="http://www.w3.org/1999/xlink" x="0px" y="0px"
	 viewBox="0 0 500 500" style="enable-background:new 0 0 500 500;" xml:space="preserve">
<style type="text/css">
	.st0{fill:#FFFFFF;}
</style>
<g id="XMLID_23_">
	<path id="XMLID_30_" class="st0" d="M408.4,242.4h-21.8v-22.5v0c0-3-1.7-5.6-4.1-7c-1.1-0.6-2.4-1-3.8-1h-73.1
		c-1.9,0-3.7,0.7-5.1,1.8c-1,0.7-1.9,1.6-2.6,2.7l-24.8,46l-22.4-43.9c-0.4-1.7-1.4-3.3-2.8-4.4c-2.3-2.1-5.8-2.7-8.8-1.3
		c-2.5,1.2-4.1,3.6-4.4,6.2l-23.4,43.4L188,216.6c-0.8-1.8-2.3-3.1-3.9-3.8c-1.1-0.5-2.3-0.9-3.6-0.9h-59.1c-1.4,0-2.7,0.3-3.8,1
		c-2.5,1.3-4.1,4-4.1,7v0v22.5H91.6c-4.4,0-7.9,3.5-7.9,7.9c0,4.4,3.5,7.9,7.9,7.9h21.8v21.8c0,4.4,3.5,7.9,7.9,7.9
		c4.4,0,7.9-3.5,7.9-7.9v-21.8h37.7c4.4,0,7.9-3.5,7.9-7.9c0-4.4-3.5-7.9-7.9-7.9h-37.7v-14.6h46.6l27.9,54.7c0.2,0.5,0.4,1,0.7,1.4
		c2.1,3.5,6.5,5,10.3,3.1c2.3-1.1,3.9-3.3,4.3-5.6l23.6-43.7l22.8,44.8c0.2,0.5,0.4,1,0.7,1.4c2.1,3.5,6.5,5,10.3,3.1
		c2.3-1.1,3.9-3.3,4.3-5.6l28.9-53.7h60.9v14.6h-52.8c-4.3,0-7.7,3.4-7.9,7.6h0v29.6c0,4.4,3.5,7.9,7.9,7.9H376c0.8,0.3,1.7,0,2.6,0
		c4.4,0,7.9-3.5,7.9-7.9v-21.4h21.8c4.4,0,7.9-3.5,7.9-7.9C416.3,246,412.7,242.4,408.4,242.4z M370.7,271.7h-45.2v-13.4h45.2V271.7
		z"/>
	<path id="XMLID_34_" d="M378.6,212c1.4,0,2.7,0.3,3.8,1c2.5,1.3,4.1,4,4.1,7v0v22.5h21.8c4.4,0,7.9,3.5,7.9,7.9
		c0,4.4-3.5,7.9-7.9,7.9h-21.8v21.4c0,4.4-3.5,7.9-7.9,7.9c-0.9,0-60.7,0-60.7,0c-4.4,0-7.9-3.5-7.9-7.9V250h0
		c0.2-4.2,3.7-7.6,7.9-7.6h52.8v-14.6h-60.9l-28.9,53.7c-0.5,2.4-2,4.5-4.3,5.6c-1.1,0.5-2.3,0.8-3.4,0.8c-2.7,0-5.4-1.4-6.8-3.9
		c-0.3-0.4-0.5-0.9-0.7-1.4l-22.8-44.8l-23.1,43.8c-1,2.3-2.5,4.4-4.8,5.6c-1.1,0.5-2.3,0.8-3.4,0.8c-2.7,0-5.4-1.4-6.8-3.9
		c-0.3-0.4-0.5-0.9-0.7-1.4l-27.9-54.7h-46.6v14.6h37.7c4.4,0,7.9,3.5,7.9,7.9c0,4.4-3.5,7.9-7.9,7.9h-37.7v21.8
		c0,4.4-3.5,7.9-7.9,7.9c-4.4,0-7.9-3.5-7.9-7.9v-21.8H91.6c-4.4,0-7.9-3.5-7.9-7.9c0-4.4,3.5-7.9,7.9-7.9h21.8v-22.5v0
		c0-3,1.7-5.6,4.1-7c1.1-0.6,2.4-1,3.8-1h59.1c1.3,0,2.5,0.3,3.6,0.9c1.7,0.7,3.1,2,3.9,3.8l23.4,45.9l23.4-43.8
		c1.2-2.4,1.8-4.6,4.4-5.8c1.1-0.5,2.3-0.8,3.4-0.8c2,0,3.9,0.7,5.3,2.1c1.4,1.1,2.1,1.9,3.1,3.8l22.1,44.5l24.8-46
		c0.6-1.1,1.5-2,2.6-2.7c1.4-1.1,3.1-1.8,5.1-1.8H378.6 M325.5,271.7h45.2v-13.4h-45.2V271.7 M378.6,195.8h-73.1
		c-5.3,0-10.5,1.8-14.7,5c-2.9,2-5.3,4.7-7,7.7l-0.1,0.2l-0.1,0.2l-10.1,18.8c0,0-11.7-23-15.2-25.8c-4.4-3.8-10-5.9-15.8-5.9
		c-3.6,0-7.2,0.8-10.5,2.4c-6.3,3-9.8,8.6-12.7,15.1l-7.6,14.2l-9.3-18.2c-2.4-4.9-6.5-8.9-11.5-11.2c-3.3-1.6-6.9-2.4-10.5-2.4
		h-59.1c-4,0-8,1-11.5,2.9c-7.8,4.2-12.6,12.4-12.6,21.2v6.3h-5.6c-13.3,0-24.1,10.8-24.1,24.1c0,13.3,10.8,24.1,24.1,24.1h5.6v5.6
		c0,13.3,10.8,24.1,24.1,24.1c13.3,0,24.1-10.8,24.1-24.1v-5.6h21.4c4.6,0,9-1.3,12.7-3.6l9.5,18.6c0.5,1.1,1,2.1,1.6,3.1
		c4.4,7.2,12.2,11.6,20.6,11.6c3.6,0,7.2-0.8,10.5-2.4c5.9-2.8,11-7.6,13.6-13.7l6.9-15.3l8.6,16.8c0.5,1.1,1,2.1,1.6,3.1
		c4.4,7.2,12.2,11.6,20.6,11.6c3.6,0,7.2-0.8,10.5-2.4c5.5-2.7,9.8-7.4,12-13c3.6,8.8,12.3,15,22.4,15l60.7,0
		c13.3,0,24.1-10.4,24.1-23.7v-5.6h5.6c13.3,0,24.1-10.8,24.1-24.1c0-13.3-10.8-24.1-24.1-24.1h-5.6v-6.3c0-8.9-4.8-17-12.6-21.2
		C386.6,196.8,382.6,195.8,378.6,195.8z"/>
</g>
</svg>
