<svg xmlns="http://www.w3.org/2000/svg" xmlns:xlink="http://www.w3.org/1999/xlink" id="Layer_1" x="0px" y="0px" viewBox="0 0 172 172" style="enable-background:new 0 0 172 172;" xml:space="preserve"> <path d="M52.1,54.9v25.6l14,15.3l3.3-19.1L82,89.5l1.3-10.8l7.8-2l-3.6,29.6L74.2,92.9l-3.6,18L52.1,90.8v30.5h66.3V54.9H52.1z M106.2,94c-6.2,1.5-11.9-1-13.9-6.2l6.7-2.1h0.2c1.1,2.3,3.9,2.9,6,1.8c2.3-1.1,2.9-3.9,1.8-6c-0.8-1.5-2.3-2.3-3.9-2.3h-0.5 c-0.3-0.2-0.5-0.2-0.7,0.2l-7.5,2.1l1.1-9l-12.2,3.6l1-7.3l19.9-5.2l-1.5,9.8c0,0,8.3-0.3,10.6,6.7C115.5,86.9,112.2,92.6,106.2,94z "></path> </svg>